<?xml version="1.0" encoding="utf-8"?>
<!-- Generator: Adobe Illustrator 21.0.0, SVG Export Plug-In . SVG Version: 6.00 Build 0)  -->
<svg version="1.1" id="Calque_1" xmlns="http://www.w3.org/2000/svg" xmlns:xlink="http://www.w3.org/1999/xlink" x="0px" y="0px"
	 viewBox="0 0 85.7 90" style="enable-background:new 0 0 85.7 90;" xml:space="preserve">
<style type="text/css">
	.st0{fill:#FFFFFF;}
</style>
<g>
	<path class="st0" d="M42.9,0C19.2,0,0,19.2,0,42.9c0,2.4,1.9,4.3,4.3,4.3c2.4,0,4.3-1.9,4.3-4.3c0-18.9,15.4-34.3,34.3-34.3
		s34.3,15.4,34.3,34.3c0,2.4,1.9,4.3,4.3,4.3c2.4,0,4.3-1.9,4.3-4.3C85.7,19.2,66.5,0,42.9,0z"/>
	<path class="st0" d="M8.6,90h8.8c2.2,0,4-1.8,4-4V59.7c0-2.2-1.8-4-4-4H8.6c0-2.4-1.9-4.3-4.3-4.3c-2.4,0-4.3,1.9-4.3,4.3
		c0,0,0,16.1,0,17.1C0,82.3,3.8,90,8.6,90z"/>
	<path class="st0" d="M81.4,51.4c-2.4,0-4.3,1.9-4.3,4.3h-8.8c-2.2,0-4,1.8-4,4V86c0,2.2,1.8,4,4,4h8.8c4.7,0,8.6-7.7,8.6-17.1
		c0-1.1,0-17.1,0-17.1C85.7,53.3,83.8,51.4,81.4,51.4z"/>
</g>
</svg>
